<?xml version="1.0" encoding="UTF-8"?>
<svg width="152px" height="101px" viewBox="0 0 152 101" version="1.1" xmlns="http://www.w3.org/2000/svg" xmlns:xlink="http://www.w3.org/1999/xlink">
    <title>car</title>
    <defs>
        <filter id="filter-1">
            <feColorMatrix in="SourceGraphic" type="matrix" values="0 0 0 0 1.000000 0 0 0 0 1.000000 0 0 0 0 1.000000 0 0 0 1.000000 0"></feColorMatrix>
        </filter>
    </defs>
    <g id="Allstate-React" stroke="none" stroke-width="1" fill="none" fill-rule="evenodd" stroke-linecap="round" stroke-linejoin="round">
        <g id="car" transform="translate(-1101.000000, -967.000000)" filter="url(#filter-1)">
            <g transform="translate(1102.000000, 968.000000)">
                <path d="M148.959179,29.5903385 C148.602658,28.5504577 147.338868,27.7417038 146.283747,27.7417038 C141.714721,27.7417038 137.146456,27.7417038 132.57743,27.7417038 C131.522689,27.7417038 130.258519,28.5504577 129.901618,29.5903385 C129.552698,30.6081346 129.291958,31.5162692 129.118638,32.3703346 L119.963103,6.99549231 C118.453017,2.81121923 114.453742,0 110.012806,0 L39.9882395,0 C35.546923,0 31.5484079,2.81121923 30.0375621,6.99625385 L20.8816466,32.3733808 C20.7079469,31.5185538 20.4472072,30.6092769 20.0979073,29.5903385 C19.7413857,28.5504577 18.4772164,27.7417038 17.422475,27.7417038 C12.8538293,27.7417038 8.28518374,27.7417038 3.71615805,27.7417038 C2.66141665,27.7417038 1.39724733,28.5504577 1.04072573,29.5903385 C-0.347351953,33.6390577 -0.346591779,35.9568 1.04110582,40.0059 C1.39762741,41.0457808 2.66179674,41.8545346 3.71653813,41.8545346 C8.28556383,41.8545346 12.8542094,41.8545346 17.422855,41.8545346 C17.435778,41.8545346 17.4494611,41.8511077 17.4627642,41.8507269 L17.2559969,42.4245462 C14.4612172,43.3547654 12.4433354,45.99045 12.4433354,49.1028577 L12.4433354,70.3516846 L12.4433354,72.1028423 L12.4433354,95.6161038 C12.4433354,97.4853 13.9553214,99 15.8211685,99 L32.8213192,99 C34.6867862,99 36.1991523,97.4853 36.1991523,95.6161038 L36.1991523,79.1432654 L113.801513,79.1432654 L113.801513,95.6161038 C113.801513,97.4853 115.313879,99 117.179346,99 L134.179497,99 C136.045344,99 137.55733,97.4853 137.55733,95.6161038 L137.55733,72.1028423 L137.55733,70.3516846 L137.55733,49.1028577 C137.55733,45.9912115 135.540208,43.3559077 132.746569,42.4249269 L132.539421,41.8507269 C132.551964,41.8511077 132.565267,41.8541538 132.57781,41.8541538 C137.146836,41.8541538 141.715101,41.8541538 146.284127,41.8541538 C147.339249,41.8541538 148.603038,41.0454 148.959559,40.0055192 C150.347257,35.9568 150.346497,33.6390577 148.959179,29.5903385 Z M41.2816755,12.4526769 L108.709868,12.4526769 L119.393353,42.0620538 L30.5985705,42.0620538 L41.2816755,12.4526769 Z M43.1623459,62.9209731 L28.940251,62.9209731 C25.8889126,62.9209731 23.4156866,60.4433077 23.4156866,57.3864923 C23.4156866,54.3300577 25.8885326,51.8520115 28.940251,51.8520115 L43.1623459,51.8520115 C46.2133042,51.8520115 48.6869103,54.3296769 48.6869103,57.3864923 C48.6872904,60.4433077 46.2133042,62.9209731 43.1623459,62.9209731 Z M121.059274,62.9209731 L106.837179,62.9209731 C103.786221,62.9209731 101.312615,60.4433077 101.312615,57.3864923 C101.312615,54.3300577 103.786221,51.8520115 106.837179,51.8520115 L121.059274,51.8520115 C124.110612,51.8520115 126.583838,54.3296769 126.583838,57.3864923 C126.583838,60.4433077 124.110612,62.9209731 121.059274,62.9209731 Z" id="Shape" stroke="#000000" fill="#000000" fill-rule="nonzero"></path>
            </g>
        </g>
    </g>
</svg>